<?xml version="1.0" encoding="UTF-8" standalone="no"?>
<!DOCTYPE svg PUBLIC "-//W3C//DTD SVG 1.1//EN" "http://www.w3.org/Graphics/SVG/1.1/DTD/svg11.dtd">
<svg version="1.1" xmlns="http://www.w3.org/2000/svg" xmlns:xlink="http://www.w3.org/1999/xlink" preserveAspectRatio="xMidYMid meet" viewBox="0 0 640 640" width="640" height="640"><defs><path d="M437.03 640C458 640 475.61 631.1 475.61 620.5C475.61 615.98 475.61 593.37 475.61 552.67L492.39 552.67C492.39 593.37 492.39 615.98 492.39 620.5C492.39 631.1 509.16 640 530.97 640C552.77 640 569.55 631.1 569.55 620.5C569.55 608.12 569.55 546.22 569.55 434.81L586.32 434.81C586.32 496.87 586.32 531.35 586.32 538.25C586.32 559.02 640 559.02 640 538.25C640 527.69 640 443.24 640 432.69C640 409.79 613.16 387.32 560.32 387.32C544.97 387.32 422.19 387.32 406.84 387.32C358.19 387.32 328 407.25 328 432.26C328 442.9 328 528.03 328 538.68C328 559.45 381.68 559.45 381.68 538.68C381.68 531.78 381.68 497.3 381.68 435.23L398.45 435.23L398.45 620.5C410.19 633.5 423.05 640 437.03 640Z" id="e7g5uoWfsH"></path><path d="M115.81 632.84L115.81 126.84" id="c2engu1kxd"></path><path d="M484 243C425.1 243 377.35 275.31 377.35 315.16C377.35 355.02 425.1 387.32 484 387.32C542.9 387.32 590.65 355.02 590.65 315.16C590.65 275.31 542.9 243 484 243Z" id="cmswkx6j"></path><path d="" id="dddgsz9R"></path><path d="M488.32 123.58L115.81 126.84" id="hcgnmWXm6"></path><path d="M196.24 126.84L115.81 206.34" id="c7kNcAC9Fu"></path><path d="M608.12 351.88L483.37 387.32L340.79 351.88L608.12 351.88Z" id="b2zLiZPoqJ"></path></defs><g><g><g><use xlink:href="#e7g5uoWfsH" opacity="1" fill="#7f8383" fill-opacity="1"></use><g><use xlink:href="#e7g5uoWfsH" opacity="1" fill-opacity="0" stroke="#000000" stroke-width="1" stroke-opacity="0"></use></g></g><g><g><use xlink:href="#c2engu1kxd" opacity="1" fill-opacity="0" stroke="#7f8383" stroke-width="2.5" stroke-opacity="1"></use></g></g><g><use xlink:href="#cmswkx6j" opacity="1" fill="#7f8383" fill-opacity="1"></use><g><use xlink:href="#cmswkx6j" opacity="1" fill-opacity="0" stroke="#000000" stroke-width="1" stroke-opacity="0"></use></g></g><g><g><use xlink:href="#dddgsz9R" opacity="1" fill-opacity="0" stroke="#000000" stroke-width="2" stroke-opacity="1"></use></g></g><g><g><use xlink:href="#hcgnmWXm6" opacity="1" fill-opacity="0" stroke="#7f8383" stroke-width="2" stroke-opacity="1"></use></g></g><g><g><use xlink:href="#c7kNcAC9Fu" opacity="1" fill-opacity="0" stroke="#7f8383" stroke-width="2" stroke-opacity="1"></use></g></g><g><g><use xlink:href="#b2zLiZPoqJ" opacity="1" fill-opacity="0" stroke="#7f8383" stroke-width="2" stroke-opacity="1"></use></g></g></g></g></svg>